<svg width="31" height="31" viewBox="0 0 31 31" fill="none" xmlns="http://www.w3.org/2000/svg">
<path d="M1.42847 6.71429C1.42847 5.19876 2.03051 3.74531 3.10214 2.67368C4.17378 1.60204 5.62723 1 7.14275 1C8.65828 1 10.1117 1.60204 11.1834 2.67368C12.255 3.74531 12.857 5.19876 12.857 6.71429V23.8571C12.857 25.3727 12.255 26.8261 11.1834 27.8978C10.1117 28.9694 8.65828 29.5714 7.14275 29.5714C5.62723 29.5714 4.17378 28.9694 3.10214 27.8978C2.03051 26.8261 1.42847 25.3727 1.42847 23.8571V6.71429Z" stroke="black" stroke-width="1.5"/>
<path d="M12.8569 9.9185L17.5898 5.18422C18.6614 4.11255 20.1149 3.5105 21.6305 3.5105C23.146 3.5105 24.5995 4.11255 25.6712 5.18422C26.7429 6.25588 27.3449 7.70937 27.3449 9.22493C27.3449 10.7405 26.7429 12.194 25.6712 13.2656L11.8655 27.0714" stroke="black" stroke-width="1.5"/>
<path d="M7.14293 29.5714H24.2858C25.8013 29.5714 27.2548 28.9694 28.3264 27.8977C29.398 26.8261 30.0001 25.3726 30.0001 23.8571C30.0001 22.3416 29.398 20.8881 28.3264 19.8165C27.2548 18.7449 25.8013 18.1428 24.2858 18.1428H20.7144M8.5715 23.8571C8.5715 24.236 8.42099 24.5994 8.15308 24.8673C7.88517 25.1352 7.52181 25.2857 7.14293 25.2857C6.76405 25.2857 6.40068 25.1352 6.13277 24.8673C5.86487 24.5994 5.71436 24.236 5.71436 23.8571C5.71436 23.4782 5.86487 23.1149 6.13277 22.847C6.40068 22.579 6.76405 22.4285 7.14293 22.4285C7.52181 22.4285 7.88517 22.579 8.15308 22.847C8.42099 23.1149 8.5715 23.4782 8.5715 23.8571Z" stroke="black" stroke-width="1.5"/>
</svg>
